<svg width="120" height="21" viewBox="0 0 120 21" fill="none" xmlns="http://www.w3.org/2000/svg">
<g clip-path="url(#clip0_2028_394)">
<path d="M120.01 0.117676H109.847V21H120.01V0.117676Z" fill="#D71819"/>
<path fill-rule="evenodd" clip-rule="evenodd" d="M75.157 0H85.165V15.6765C85.165 16.7941 85.5708 17.5588 87.0198 17.5686H106.611V21H83.6001C77.8715 20.8824 75.128 19.5784 75.1666 14.1569V0H75.157Z" fill="#D71819"/>
<path fill-rule="evenodd" clip-rule="evenodd" d="M0 0.0292969H10.0467V8.47047H25.8412V0.0292969H35.9169V20.9803H25.8412V11.8332H10.0467V20.9803H0V0.0292969Z" fill="#D71819"/>
<path fill-rule="evenodd" clip-rule="evenodd" d="M49.3544 15.9118C49.3544 17.0294 49.5669 17.6177 51.0159 17.6275H71.9304V20.9216H47.2871C41.5489 20.8039 39.1145 19.5 39.1531 14.0784V6.90198C39.1145 1.4706 41.5489 0.166681 47.2871 0.0588379H71.9304V3.35296H51.0159C49.5669 3.35296 49.3447 3.95099 49.3544 5.06864V8.4608H71.9304V11.8235H49.3544V15.9118Z" fill="#D71819"/>
</g>
<defs>
<clipPath id="clip0_2028_394">
<rect width="120" height="21" fill="white"/>
</clipPath>
</defs>
</svg>
